HIERARCHY
ROOT hip
{
  OFFSET 0.0 0.0 0.0
  CHANNELS 6 Xposition Yposition Zposition Zrotation Yrotation Xrotation
  JOINT abdomen
  {
    OFFSET 0.0 20.6881 -0.73152
    CHANNELS 3 Zrotation Xrotation Yrotation
    JOINT chest
    {
      OFFSET 0.0 11.7043 -0.48768
      CHANNELS 3 Zrotation Xrotation Yrotation
      JOINT neck
      {
        OFFSET 0.0 22.1894 -2.19456
        CHANNELS 3 Zrotation Xrotation Yrotation
        JOINT head
        {
          OFFSET -0.24384 7.07133 1.2192
          CHANNELS 3 Zrotation Xrotation Yrotation
          JOINT leftEye
          {
            OFFSET 4.14528 8.04674 8.04672
            CHANNELS 3 Zrotation Xrotation Yrotation
            End Site
            {
              OFFSET 1.0 0.0 0.0
            }
          }
          JOINT rightEye
          {
            OFFSET -3.6576 8.04674 8.04672
            CHANNELS 3 Zrotation Xrotation Yrotation
            End Site
            {
              OFFSET 1.0 0.0 0.0
            }
          }
        }
      }
      JOINT rCollar
      {
        OFFSET -2.68224 19.2634 -4.8768
        CHANNELS 3 Zrotation Xrotation Yrotation
        JOINT rShldr
        {
          OFFSET -8.77824 -1.95073 1.46304
          CHANNELS 3 Zrotation Xrotation Yrotation
          JOINT rForeArm
          {
            OFFSET -28.1742 -1.7115 0.48768
            CHANNELS 3 Zrotation Xrotation Yrotation
            JOINT rHand
            {
              OFFSET -22.5879 0.773209 7.07136
              CHANNELS 3 Zrotation Xrotation Yrotation
              JOINT rThumb1
              {
                OFFSET -1.2192 -0.487915 3.41376
                CHANNELS 3 Zrotation Xrotation Yrotation
                JOINT rThumb2
                {
                  OFFSET -3.37035 -0.52449 3.41376
                  CHANNELS 3 Zrotation Xrotation Yrotation
                  End Site
                  {
                    OFFSET -1.78271 -1.18214 1.43049
                  }
                }
              }
              JOINT rIndex1
              {
                OFFSET -7.75947 0.938293 5.60832
                CHANNELS 3 Zrotation Xrotation Yrotation
                JOINT rIndex2
                {
                  OFFSET -2.54057 -0.884171 1.56538
                  CHANNELS 3 Zrotation Xrotation Yrotation
                  End Site
                  {
                    OFFSET -1.62519 -0.234802 1.16502
                  }
                }
              }
              JOINT rMid1
              {
                OFFSET -8.24714 1.18213 3.41376
                CHANNELS 3 Zrotation Xrotation Yrotation
                JOINT rMid2
                {
                  OFFSET -3.10165 -0.590103 1.0647
                  CHANNELS 3 Zrotation Xrotation Yrotation
                  End Site
                  {
                    OFFSET -2.48547 -0.328903 0.83742
                  }
                }
              }
              JOINT rRing1
              {
                OFFSET -8.82822 0.546677 1.51678
                CHANNELS 3 Zrotation Xrotation Yrotation
                JOINT rRing2
                {
                  OFFSET -2.60934 -0.819778 -0.0198488
                  CHANNELS 3 Zrotation Xrotation Yrotation
                  End Site
                  {
                    OFFSET -2.33842 -0.294052 0.168128
                  }
                }
              }
              JOINT rPinky1
              {
                OFFSET -8.27202 -0.0477905 -0.4584
                CHANNELS 3 Zrotation Xrotation Yrotation
                JOINT rPinky2
                {
                  OFFSET -1.82734 -0.647385 -0.700984
                  CHANNELS 3 Zrotation Xrotation Yrotation
                  End Site
                  {
                    OFFSET -1.69225 -0.51767 -0.607171
                  }
                }
              }
            }
          }
        }
      }
      JOINT lCollar
      {
        OFFSET 2.68224 19.2634 -4.8768
        CHANNELS 3 Zrotation Xrotation Yrotation
        JOINT lShldr
        {
          OFFSET 8.77824 -1.95073 1.46304
          CHANNELS 3 Zrotation Xrotation Yrotation
          JOINT lForeArm
          {
            OFFSET 28.1742 -1.7115 0.48768
            CHANNELS 3 Zrotation Xrotation Yrotation
            JOINT lHand
            {
              OFFSET 22.5879 0.773209 7.07136
              CHANNELS 3 Zrotation Xrotation Yrotation
              JOINT lThumb1
              {
                OFFSET 1.2192 -0.487915 3.41376
                CHANNELS 3 Zrotation Xrotation Yrotation
                JOINT lThumb2
                {
                  OFFSET 3.37035 -0.52449 3.41376
                  CHANNELS 3 Zrotation Xrotation Yrotation
                  End Site
                  {
                    OFFSET 1.78271 -1.18214 1.43049
                  }
                }
              }
              JOINT lIndex1
              {
                OFFSET 7.75947 0.938293 5.60832
                CHANNELS 3 Zrotation Xrotation Yrotation
                JOINT lIndex2
                {
                  OFFSET 2.54057 -0.884171 1.56538
                  CHANNELS 3 Zrotation Xrotation Yrotation
                  End Site
                  {
                    OFFSET 1.62519 -0.234802 1.16502
                  }
                }
              }
              JOINT lMid1
              {
                OFFSET 8.24714 1.18213 3.41376
                CHANNELS 3 Zrotation Xrotation Yrotation
                JOINT lMid2
                {
                  OFFSET 3.10165 -0.590103 1.0647
                  CHANNELS 3 Zrotation Xrotation Yrotation
                  End Site
                  {
                    OFFSET 2.48547 -0.328903 0.83742
                  }
                }
              }
              JOINT lRing1
              {
                OFFSET 8.82822 0.546677 1.51678
                CHANNELS 3 Zrotation Xrotation Yrotation
                JOINT lRing2
                {
                  OFFSET 2.60934 -0.819778 -0.0198488
                  CHANNELS 3 Zrotation Xrotation Yrotation
                  End Site
                  {
                    OFFSET 2.33842 -0.294052 0.168128
                  }
                }
              }
              JOINT lPinky1
              {
                OFFSET 8.27202 -0.0477905 -0.4584
                CHANNELS 3 Zrotation Xrotation Yrotation
                JOINT lPinky2
                {
                  OFFSET 1.82734 -0.647385 -0.700984
                  CHANNELS 3 Zrotation Xrotation Yrotation
                  End Site
                  {
                    OFFSET 1.69225 -0.51767 -0.607171
                  }
                }
              }
            }
          }
        }
      }
    }
  }
  JOINT rButtock
  {
    OFFSET -8.77824 4.35084 1.2192
    CHANNELS 3 Zrotation Xrotation Yrotation
    JOINT rThigh
    {
      OFFSET 0.0 -1.70687 -2.19456
      CHANNELS 3 Zrotation Xrotation Yrotation
      JOINT rShin
      {
        OFFSET 0.0 -36.8199 0.73152
        CHANNELS 3 Zrotation Xrotation Yrotation
        JOINT rFoot
        {
          OFFSET 0.73152 -45.1104 -5.12064
          CHANNELS 3 Zrotation Xrotation Yrotation
          End Site
          {
            OFFSET -1.1221 -3.69964 12.103
          }
        }
      }
    }
  }
  JOINT lButtock
  {
    OFFSET 8.77824 4.35084 1.2192
    CHANNELS 3 Zrotation Xrotation Yrotation
    JOINT lThigh
    {
      OFFSET 0.0 -1.70687 -2.19456
      CHANNELS 3 Zrotation Xrotation Yrotation
      JOINT lShin
      {
        OFFSET 0.0 -36.8199 0.73152
        CHANNELS 3 Zrotation Xrotation Yrotation
        JOINT lFoot
        {
          OFFSET -0.73152 -45.1104 -5.12064
          CHANNELS 3 Zrotation Xrotation Yrotation
          End Site
          {
            OFFSET 1.1221 -3.69964 12.103
          }
        }
      }
    }
  }
}
MOTION
Frames: 4
Frame Time: 0.00833333
0.0 74.8996 0.0 91.3814 -84.7927 -67.3065 -13.0435 7.55477 -3.6484 5.63641 -18.7513 -0.366845 3.08098 -4.16086 0.816941 -4.40426 0.596493 0.304462 -0.0 0.0 0.0 -0.0 0.0 0.0 0.0 0.0 0.0 0.0 0.0 0.0 0.0 0.0 0.0 -0.303093 -15.4681 -2.22897 3.77098e-11 -3.05473e-10 4.50953e-10 5.90945e-11 -5.30813e-10 7.85962e-10 3.77186e-11 -3.05472e-10 4.50944e-10 7.73091 5.47488 0.417314 3.77035e-11 -3.05473e-10 4.5096e-10 2.90554 0.965183 0.102902 3.77162e-11 -3.05472e-10 4.50953e-10 10.2786 0.731801 0.0259123 3.77096e-11 -3.05471e-10 4.50956e-10 2.22167 -0.733487 -0.20892 0.0 0.0 0.0 0.0 0.0 0.0 0.0 0.0 0.0 0.00117704 0.549383 -0.0772097 -2.31288e-10 -1.67243e-09 1.61964e-09 -3.99468e-10 -2.89196e-09 2.80083e-09 -2.31291e-10 -1.67242e-09 1.61965e-09 -7.73091 5.47488 -0.417314 -2.3129e-10 -1.67242e-09 1.61964e-09 -2.90554 0.965183 -0.102902 -2.31295e-10 -1.67242e-09 1.61963e-09 -10.2786 0.731801 -0.0259123 -2.31283e-10 -1.67243e-09 1.61962e-09 -2.22167 -0.733487 0.20892 -2.03217e-16 0.0 -3.88251e-19 -12.1073 -58.3467 -10.956 -0.61093 56.8797 2.35195 -4.98947 -15.2301 -17.0145 2.03217e-16 0.0 3.88251e-19 -20.8101 -14.8642 -10.9245 -0.0817354 25.5713 -1.18143 1.51183 6.0659 -20.9767
-2.9310000000000116 75.9366 -0.370000000000001 91.5784 -85.0715 -67.5676 -11.6375 7.15388 -4.20572 5.80797 -19.0221 -0.45058 3.17425 -4.17359 1.29114 -5.29316 1.20432 1.20935 -0.0 0.0 0.0 -0.0 0.0 0.0 0.0 0.0 0.0 0.0 0.0 0.0 0.0 0.0 0.0 -0.292099 -15.1866 -2.18647 -2.05589e-09 -6.16617e-10 6.06905e-10 -3.55568e-09 -1.06073e-09 1.035e-09 -2.05589e-09 -6.16615e-10 6.06904e-10 7.73091 5.47488 0.417314 -2.0559e-09 -6.16617e-10 6.06917e-10 2.90554 0.965183 0.102902 -2.05589e-09 -6.16616e-10 6.06905e-10 10.2786 0.731801 0.0259123 -2.05589e-09 -6.16614e-10 6.06907e-10 2.22167 -0.733487 -0.20892 0.0 0.0 0.0 0.0 0.0 0.0 0.0 0.0 0.0 0.000574182 0.0774833 -0.0108945 -2.08917e-09 -2.9202e-09 4.71067e-09 -3.60992e-09 -5.04866e-09 8.14224e-09 -2.08917e-09 -2.9202e-09 4.71067e-09 -7.73091 5.47488 -0.417314 -2.08917e-09 -2.9202e-09 4.71066e-09 -2.90554 0.965183 -0.102902 -2.08917e-09 -2.9202e-09 4.71066e-09 -10.2786 0.731801 -0.0259123 -2.08916e-09 -2.9202e-09 4.71065e-09 -2.22167 -0.733487 0.20892 -2.03217e-16 0.0 -3.88251e-19 -8.06622 -59.3901 -6.12376 -0.417526 50.5661 2.03141 -5.20468 -17.5451 -16.6031 2.03217e-16 0.0 3.88251e-19 -19.2274 -10.53 -11.9613 -0.0835129 20.7543 -1.12794 -0.116796 2.75953 -20.5953
-5.939000000000021 77.0797 -0.8038000000000007 92.7484 -85.5473 -68.9268 -10.2663 6.71235 -4.47458 5.7492 -19.2213 -0.511339 3.29938 -4.15491 1.68312 -6.16929 1.70304 1.94602 -0.0 0.0 0.0 -0.0 0.0 0.0 0.0 0.0 0.0 0.0 0.0 0.0 0.0 0.0 0.0 -0.292649 -15.2159 -2.19072 -3.45101e-09 -8.54695e-10 7.71052e-10 -5.96544e-09 -1.46712e-09 1.30462e-09 -3.45101e-09 -8.54692e-10 7.71055e-10 7.73091 5.47488 0.417314 -3.45102e-09 -8.54696e-10 7.71068e-10 2.90554 0.965183 0.102902 -3.45101e-09 -8.54694e-10 7.71052e-10 10.2786 0.731801 0.0259123 -3.45101e-09 -8.54692e-10 7.71052e-10 2.22167 -0.733487 -0.20892 0.0 0.0 0.0 0.0 0.0 0.0 0.0 0.0 0.0 9.34379e-07 -0.0276285 0.00388293 -3.34505e-09 -3.87453e-09 6.75682e-09 -5.7793e-09 -6.69836e-09 1.16791e-08 -3.34506e-09 -3.87453e-09 6.75682e-09 -7.73091 5.47488 -0.417314 -3.34505e-09 -3.87453e-09 6.75681e-09 -2.90554 0.965183 -0.102902 -3.34506e-09 -3.87453e-09 6.75681e-09 -10.2786 0.731801 -0.0259123 -3.34505e-09 -3.87453e-09 6.7568e-09 -2.22167 -0.733487 0.20892 -2.03217e-16 0.0 -3.88251e-19 -3.43732 -59.6366 -0.549773 -0.286284 44.7909 1.77726 -5.44696 -19.3587 -16.5379 2.03217e-16 0.0 3.88251e-19 -17.7482 -7.13833 -12.6043 -0.0759505 17.1745 -1.00619 -1.75526 -0.857225 -19.1909
-9.044000000000011 78.3661 -1.3986 95.8685 -86.2673 -72.3689 -8.86535 6.14867 -4.33524 5.3589 -19.3322 -0.543123 3.53477 -4.06276 1.9846 -7.04509 2.05081 2.47377 -0.0 0.0 0.0 -0.0 0.0 0.0 0.0 0.0 0.0 0.0 0.0 0.0 0.0 0.0 0.0 -0.310822 -15.7008 -2.26374 -3.92846e-09 -1.02306e-09 9.98024e-10 -6.7928e-09 -1.75684e-09 1.69113e-09 -3.92845e-09 -1.02305e-09 9.98028e-10 7.73091 5.47488 0.417314 -3.92847e-09 -1.02306e-09 9.98043e-10 2.90554 0.965183 0.102902 -3.92845e-09 -1.02306e-09 9.98024e-10 10.2786 0.731801 0.0259123 -3.92846e-09 -1.02305e-09 9.98024e-10 2.22167 -0.733487 -0.20892 0.0 0.0 0.0 0.0 0.0 0.0 0.0 0.0 0.0 -0.00126566 0.466147 -0.0654844 -3.83801e-09 -4.58037e-09 7.48431e-09 -6.6286e-09 -7.91896e-09 1.29393e-08 -3.83802e-09 -4.58038e-09 7.48432e-09 -7.73091 5.47488 -0.417314 -3.83801e-09 -4.58038e-09 7.48431e-09 -2.90554 0.965183 -0.102902 -3.83802e-09 -4.58038e-09 7.4843e-09 -10.2786 0.731801 -0.0259123 -3.83801e-09 -4.58038e-09 7.4843e-09 -2.22167 -0.733487 0.20892 -2.03217e-16 0.0 -3.88251e-19 1.85235 -58.9101 6.22178 -0.165701 39.341 1.52573 -5.89347 -20.6173 -17.1492 2.03217e-16 0.0 3.88251e-19 -16.5407 -4.67714 -12.8985 -0.0561489 14.5876 -0.727996 -3.38627 -5.51267 -16.2956
